<svg id="Layer_1" enable-background="new 0 0 64 64" height="512" viewBox="0 0 64 64" width="512" xmlns="http://www.w3.org/2000/svg"><path d="m57 45.8v-27.6c0-.7-.4-1.4-1-1.7l-23-13c-.6-.3-1.3-.3-2 0l-23 12.9c-.6.4-1 1-1 1.7v27.7c0 .7.4 1.4 1 1.7l23 12.9c.6.3 1.3.3 2 0l23-12.9c.6-.3 1-.9 1-1.7z" fill="#0888ba"/><path d="m31 30.5c.6.3 1.3.3 2 0l23.7-13.3c-.2-.3-.4-.6-.7-.7l-23-12.9c-.6-.3-1.3-.3-2 0l-23 12.8c-.3.2-.6.4-.7.7z" fill="#06688f"/><path d="m17 34v-16.4c0-.3.2-.7.5-.8l7.1-4.4c.3-.2.7-.2 1 0l1 .5c.3.1.6.1.9 0l10.5-5.9v15z" fill="#44d381"/><path d="m24 39v-17.4c0-.3.2-.7.5-.8l7.1-4.4c.3-.2.7-.2 1 0l1 .5c.3.1.6.1.9 0l10.5-5.9v17z" fill="#06c15a"/><path d="m40.5 20.7c-.3.2-.7.2-1 .1l-1-.5c-.3-.2-.7-.1-1 0l-7.1 4.4c-.3.2-.5.5-.5.8v11.5l21-12v-11z" fill="#087f5d"/><path d="m31 30.5-23.7-13.3c-.2.3-.3.6-.3 1v27.7c0 .7.4 1.4 1 1.7l23 12.9c.3.2.6.3 1 .3v-30c-.4-.1-.7-.2-1-.3z" fill="#0888ba"/><g fill="#06688f"><path d="m12.3 24.5-5.3-2.4v2.2l4.4 2c.3.2.6.5.6.9v3.8h2v-3.8c0-1.1-.7-2.2-1.7-2.7z"/><path d="m32 42.8-9.5-5.1c-.3-.2-.5-.5-.5-.9v-4.8h-2v4.8c0 1.1.6 2.1 1.6 2.6l10.4 5.7z"/><path d="m32 54.7-9.5-5c-.3-.2-.5-.5-.5-.9v-3.7c0-1.1-.6-2-1.5-2.6l-6-3.4-1 1.7 6 3.4c.3.2.5.5.5.9v3.7c0 1.1.6 2.1 1.6 2.6l10.4 5.5z"/></g><circle cx="14" cy="40" fill="#f9e310" r="2"/><circle cx="21" cy="32" fill="#f9e310" r="2"/><circle cx="13" cy="31" fill="#f9e310" r="2"/><path d="m33 30.5 23.7-13.3c.2.3.3.6.3 1v27.7c0 .7-.4 1.4-1 1.7l-23 12.9c-.3.2-.6.3-1 .3v-30c.3-.1.7-.2 1-.3z" fill="#0778a6"/><path d="m36.8 34.5-4.8 2.4v2.2l5.7-2.8z" fill="#06688f"/><path d="m50.6 33.1-6.9 3.4c-1 .5-1.7 1.5-1.7 2.7v3.6c0 .4-.2.7-.5.9l-9.5 5.1v2.3l10.4-5.6c1-.5 1.6-1.5 1.6-2.6v-3.6c0-.4.2-.7.6-.9l6.9-3.4z" fill="#06688f"/><path d="m57 37.9-8.4 4.2.8 1.8 7.6-3.8z" fill="#06688f"/><circle cx="51" cy="34" fill="#f9e310" r="2"/><circle cx="49" cy="43" fill="#f9e310" r="2"/><circle cx="38" cy="35" fill="#f9e310" r="2"/></svg>