<?xml version="1.0" encoding="iso-8859-1"?>
<!DOCTYPE svg PUBLIC "-//W3C//DTD SVG 1.1//EN" "http://www.w3.org/Graphics/SVG/1.1/DTD/svg11.dtd">
<svg version="1.1" id="Capa_1" xmlns="http://www.w3.org/2000/svg" xmlns:xlink="http://www.w3.org/1999/xlink" x="0px" y="0px"
	 width="577.073px" height="577.073px" viewBox="0 0 577.073 577.073" style="enable-background:new 0 0 577.073 577.073;"
	 xml:space="preserve">

			<path fill="#FFF" d="M387.627,123.976h-62.535c-36.103,0-65.469,29.368-65.469,65.47v54.317c-14.702,9.515-24.474,25.967-24.474,44.772
				c0,29.478,23.909,53.386,53.387,53.386c29.479,0,53.386-23.908,53.386-53.386c0-18.805-9.77-35.257-24.471-44.772v-54.317
				c0-4.214,3.426-7.644,7.641-7.644h62.535c4.215,0,7.641,3.427,7.641,7.644v198.183c0,4.214-3.426,7.643-7.641,7.643h-198.18
				c-4.217,0-7.642-3.427-7.642-7.643v-234.74c0-15.973-12.952-28.913-28.915-28.913c-15.963,0-28.913,12.942-28.913,28.913v234.736
				c0,36.104,29.366,65.468,65.47,65.468h198.18c36.104,0,65.469-29.365,65.469-65.468v-198.18
				C453.096,153.341,423.732,123.976,387.627,123.976z"/>
			<path fill="#FFF" d="M464.787,0h-352.5C50.374,0,0,50.375,0,112.287v352.5c0,61.912,50.374,112.286,112.288,112.286h352.5
				c61.912,0,112.285-50.374,112.285-112.286v-352.5C577.072,50.375,526.697,0,464.787,0z M519.244,464.786
				c0,30.024-24.435,54.458-54.457,54.458h-352.5c-30.026,0-54.458-24.434-54.458-54.458v-352.5
				c0-30.025,24.433-54.458,54.458-54.458h352.5c30.025,0,54.457,24.435,54.457,54.458V464.786z"/>

</svg>
