<?xml version="1.0" encoding="UTF-8" standalone="no"?>
<svg
   xmlns:dc="http://purl.org/dc/elements/1.1/"
   xmlns:cc="http://creativecommons.org/ns#"
   xmlns:rdf="http://www.w3.org/1999/02/22-rdf-syntax-ns#"
   xmlns:svg="http://www.w3.org/2000/svg"
   xmlns="http://www.w3.org/2000/svg"
   xmlns:sodipodi="http://sodipodi.sourceforge.net/DTD/sodipodi-0.dtd"
   xmlns:inkscape="http://www.inkscape.org/namespaces/inkscape"
   sodipodi:docname="pia_logo_black.svg"
   inkscape:version="1.0 (4035a4fb49, 2020-05-01)"
   id="svg3055"
   version="1.1"
   viewBox="0 0 35.808426 35.35627"
   height="133.62999"
   width="135.33893">
  <defs
     id="defs3049" />
  <sodipodi:namedview
     units="px"
     fit-margin-bottom="0"
     fit-margin-right="0"
     fit-margin-left="0"
     fit-margin-top="0"
     inkscape:window-maximized="1"
     inkscape:window-y="-8"
     inkscape:window-x="-8"
     inkscape:window-height="1009"
     inkscape:window-width="1920"
     inkscape:pagecheckerboard="true"
     showborder="false"
     showgrid="false"
     inkscape:document-rotation="0"
     inkscape:current-layer="layer1"
     inkscape:document-units="mm"
     inkscape:cy="846.89803"
     inkscape:cx="65.523645"
     inkscape:zoom="0.35"
     inkscape:pageshadow="2"
     inkscape:pageopacity="0.0"
     borderopacity="1.0"
     bordercolor="#666666"
     pagecolor="#ffffff"
     id="base" />
  <metadata
     id="metadata3052">
    <rdf:RDF>
      <cc:Work
         rdf:about="">
        <dc:format>image/svg+xml</dc:format>
        <dc:type
           rdf:resource="http://purl.org/dc/dcmitype/StillImage" />
        <dc:title></dc:title>
      </cc:Work>
    </rdf:RDF>
  </metadata>
  <g
     transform="translate(143.20253,75.908435)"
     id="layer1"
     inkscape:groupmode="layer"
     inkscape:label="Ebene 1">
    <g
       transform="translate(-58.777906,-37.09621)"
       id="g3012">
      <g
         style="fill:#000000;fill-opacity:1"
         id="g30-6-1"
         transform="matrix(0.35277777,0,0,-0.35277777,-75.034036,-8.1271919)">
        <path
           d="m 0,0 c 0,-7.312 -5.928,-13.241 -13.241,-13.241 -7.313,0 -13.241,5.929 -13.241,13.241 0,7.312 5.928,13.241 13.241,13.241 C -5.928,13.241 0,7.312 0,0"
           style="fill:#000000;fill-opacity:1;fill-rule:nonzero;stroke:none"
           id="path32-1-2" />
      </g>
      <g
         style="fill:#000000;fill-opacity:1"
         id="g34-5-3"
         transform="matrix(0.35277777,0,0,-0.35277777,-75.034036,-21.896532)">
        <path
           d="m 0,0 c 0,-7.313 -5.928,-13.241 -13.241,-13.241 -7.313,0 -13.241,5.928 -13.241,13.241 0,7.312 5.928,13.24 13.241,13.24 C -5.928,13.24 0,7.312 0,0"
           style="fill:#000000;fill-opacity:1;fill-rule:nonzero;stroke:none"
           id="path36-6-5" />
      </g>
      <g
         style="fill:#000000;fill-opacity:1"
         id="g38-5-0"
         transform="matrix(0.35277777,0,0,-0.35277777,-76.257398,-11.301839)">
        <path
           d="m 0,0 h -19.546 c 4.249,0 4.249,23.143 0,23.143 H 0 C -4.462,23.143 -4.462,0 0,0"
           style="fill:#000000;fill-opacity:1;fill-rule:nonzero;stroke:none"
           id="path40-6-0" />
      </g>
      <g
         style="fill:#000000;fill-opacity:1"
         id="g42-6-7"
         transform="matrix(0.35277777,0,0,-0.35277777,-62.789331,-20.37172)">
        <path
           d="m 0,0 c 0,-7.312 -5.928,-13.24 -13.241,-13.24 -7.313,0 -13.241,5.928 -13.241,13.24 0,7.313 5.928,13.241 13.241,13.241 C -5.928,13.241 0,7.313 0,0"
           style="fill:#000000;fill-opacity:1;fill-rule:nonzero;stroke:none"
           id="path44-9-0" />
      </g>
      <g
         style="fill:#000000;fill-opacity:1"
         id="g46-5-7"
         transform="matrix(0.35277777,0,0,-0.35277777,-62.789331,-34.141095)">
        <path
           d="m 0,0 c 0,-7.312 -5.928,-13.241 -13.241,-13.241 -7.313,0 -13.241,5.929 -13.241,13.241 0,7.312 5.928,13.241 13.241,13.241 C -5.928,13.241 0,7.312 0,0"
           style="fill:#000000;fill-opacity:1;fill-rule:nonzero;stroke:none"
           id="path48-1-1" />
      </g>
      <g
         style="fill:#000000;fill-opacity:1"
         id="g50-8-3"
         transform="matrix(0.35277777,0,0,-0.35277777,-64.012658,-23.546403)">
        <path
           d="m 0,0 h -19.546 c 4.249,0 4.249,23.144 0,23.144 H 0 C -4.462,23.144 -4.462,0 0,0"
           style="fill:#000000;fill-opacity:1;fill-rule:nonzero;stroke:none"
           id="path52-6-0" />
      </g>
      <g
         style="fill:#000000;fill-opacity:1"
         id="g54-9-4"
         transform="matrix(0.35277777,0,0,-0.35277777,-48.616202,-19.955901)">
        <path
           d="m 0,0 c 0,-7.312 -5.928,-13.241 -13.241,-13.241 -7.313,0 -13.241,5.929 -13.241,13.241 0,7.312 5.928,13.241 13.241,13.241 C -5.928,13.241 0,7.312 0,0"
           style="fill:#000000;fill-opacity:1;fill-rule:nonzero;stroke:none"
           id="path56-0-0" />
      </g>
      <g
         id="g58-5-3"
         transform="matrix(0.35277777,0,0,-0.35277777,-48.616202,-33.725276)"
         style="fill:#000000;fill-opacity:1">
        <path
           d="m 0,0 c 0,-7.312 -5.928,-13.241 -13.241,-13.241 -7.313,0 -13.241,5.929 -13.241,13.241 0,7.312 5.928,13.241 13.241,13.241 C -5.928,13.241 0,7.312 0,0"
           style="fill:#000000;fill-opacity:1;fill-rule:nonzero;stroke:none"
           id="path60-1-5" />
      </g>
      <g
         style="fill:#000000;fill-opacity:1"
         id="g62-6-5"
         transform="matrix(0.35277777,0,0,-0.35277777,-49.839565,-23.130548)">
        <path
           d="m 0,0 h -19.546 c 4.249,0 4.249,23.143 0,23.143 H 0 C -4.462,23.143 -4.462,0 0,0"
           style="fill:#000000;fill-opacity:1;fill-rule:nonzero;stroke:none"
           id="path64-7-6" />
      </g>
      <g
         style="fill:#000000;fill-opacity:1"
         id="g66-4-3"
         transform="matrix(0.35277777,0,0,-0.35277777,-67.056601,-3.4559559)">
        <path
           d="m 0,0 c -7.313,0 -13.241,5.929 -13.241,13.241 0,7.313 5.928,13.241 13.241,13.241 7.312,0 13.241,-5.928 13.241,-13.241 C 13.241,5.929 7.312,0 0,0"
           style="fill:#000000;fill-opacity:1;fill-rule:nonzero;stroke:none"
           id="path68-5-7" />
      </g>
      <g
         style="fill:#000000;fill-opacity:1"
         id="g70-4-7"
         transform="matrix(0.35277777,0,0,-0.35277777,-53.287403,-3.4559559)">
        <path
           d="m 0,0 c -7.312,0 -13.241,5.929 -13.241,13.241 0,7.313 5.929,13.241 13.241,13.241 7.313,0 13.241,-5.928 13.241,-13.241 C 13.241,5.929 7.313,0 0,0"
           style="fill:#000000;fill-opacity:1;fill-rule:nonzero;stroke:none"
           id="path72-9-4" />
      </g>
      <g
         style="fill:#000000;fill-opacity:1"
         id="g74-3-0"
         transform="matrix(0.35277777,0,0,-0.35277777,-63.882095,-4.6793189)">
        <path
           d="m 0,0 v 19.547 c 0,-4.249 23.143,-4.249 23.143,0 V 0 C 23.143,4.463 0,4.463 0,0"
           style="fill:#000000;fill-opacity:1;fill-rule:nonzero;stroke:none"
           id="path76-7-8" />
      </g>
      <g
         style="fill:#000000;fill-opacity:1"
         id="g78-2-9"
         transform="matrix(0.35277777,0,0,-0.35277777,-79.775722,-30.720809)">
        <path
           d="m 0,0 c -4.127,0 -7.493,3.366 -7.493,7.493 0,4.139 3.366,7.493 7.493,7.493 4.127,0 7.493,-3.354 7.493,-7.493 C 7.493,3.366 4.127,0 0,0 m 0,20.671 c -7.266,0 -13.178,-5.912 -13.178,-13.178 0,-7.265 5.912,-13.178 13.178,-13.178 7.265,0 13.178,5.913 13.178,13.178 0,7.266 -5.913,13.178 -13.178,13.178"
           style="fill:#000000;fill-opacity:1;fill-rule:nonzero;stroke:none"
           id="path80-6-7" />
      </g>
    </g>
  </g>
</svg>
